<?xml version="1.0" standalone="no"?>
<!DOCTYPE svg PUBLIC "-//W3C//DTD SVG 20010904//EN"
 "http://www.w3.org/TR/2001/REC-SVG-20010904/DTD/svg10.dtd">
<svg version="1.0" xmlns="http://www.w3.org/2000/svg"
 width="512.000000pt" height="512.000000pt" viewBox="0 0 512.000000 512.000000"
 preserveAspectRatio="xMidYMid meet">

<g transform="translate(0.000000,512.000000) scale(0.100000,-0.100000)"
fill="#000000" stroke="none">
<path d="M1213 5102 c-60 -22 -112 -59 -149 -107 -35 -46 -962 -2126 -976
-2189 -28 -131 45 -277 170 -340 26 -13 163 -74 306 -136 282 -122 299 -126
347 -74 l24 26 5 516 c5 461 8 523 24 572 50 153 171 296 307 363 142 70 73
67 1501 67 1287 0 1288 0 1309 21 27 27 22 76 -11 100 -14 10 -620 282 -1347
604 -1243 551 -1326 586 -1390 591 -51 3 -81 0 -120 -14z"/>
<path d="M1491 3509 c-108 -18 -190 -83 -240 -189 l-26 -55 -3 -1155 c-2 -829
0 -1172 8 -1215 20 -105 89 -193 185 -237 47 -22 64 -23 304 -26 l253 -4 -7
44 c-10 56 -10 226 0 306 l7 62 -171 0 -171 0 0 535 0 535 1500 0 1500 0 0
-535 0 -535 -170 0 -171 0 8 -62 c10 -75 9 -282 0 -321 l-7 -27 219 0 c121 0
244 5 273 11 99 21 187 91 230 184 l23 50 3 1165 c2 867 0 1179 -9 1220 -22
105 -84 180 -189 229 l-55 26 -1620 1 c-929 1 -1643 -2 -1674 -7z m3139 -569
l0 -170 -1500 0 -1500 0 0 170 0 170 1500 0 1500 0 0 -170z"/>
<path d="M3030 1639 c-354 -45 -634 -306 -706 -658 -22 -109 -15 -273 16 -381
83 -289 331 -520 624 -581 509 -105 986 282 986 799 0 241 -83 438 -254 600
-134 127 -292 201 -474 222 -97 11 -100 11 -192 -1z m165 -261 c3 -2 8 -28 12
-58 l8 -53 58 -14 c58 -13 117 -38 117 -50 0 -28 -36 -126 -48 -130 -8 -4 -37
2 -66 12 -29 11 -78 19 -113 19 -52 0 -67 -4 -88 -24 -57 -53 -17 -105 123
-163 107 -45 167 -93 198 -161 62 -133 1 -278 -142 -336 l-54 -22 0 -57 c0
-31 -5 -62 -12 -69 -16 -16 -110 -16 -126 0 -7 7 -12 35 -12 64 l0 52 -73 16
c-74 17 -137 47 -137 67 0 23 33 124 43 131 5 3 29 -2 52 -12 146 -63 285 -41
285 44 0 50 -31 81 -117 116 -140 57 -210 110 -239 177 -30 68 -8 189 44 246
9 11 47 35 85 53 l67 34 0 49 c0 67 18 85 82 79 27 -3 51 -7 53 -10z"/>
</g>
</svg>
