<?xml version="1.0" standalone="no"?>
<!DOCTYPE svg PUBLIC "-//W3C//DTD SVG 20010904//EN"
 "http://www.w3.org/TR/2001/REC-SVG-20010904/DTD/svg10.dtd">
<svg version="1.0" xmlns="http://www.w3.org/2000/svg"
 width="512.000000pt" height="512.000000pt" viewBox="0 0 512.000000 512.000000"
 preserveAspectRatio="xMidYMid meet">

<g transform="translate(0.000000,512.000000) scale(0.100000,-0.100000)"
fill="#000000" stroke="none">
<path d="M172 4084 l-22 -15 0 -1138 c0 -1090 1 -1139 18 -1154 15 -14 40 -17
125 -17 l107 0 0 -107 c0 -60 4 -113 8 -119 22 -33 44 -34 1064 -34 l1013 0
35 -63 c46 -82 206 -243 289 -291 145 -84 270 -119 421 -118 58 1 440 4 850 7
410 3 755 7 767 10 29 7 90 60 107 94 20 39 28 139 16 201 -11 61 -32 95 -76
124 l-29 20 0 122 c0 116 1 124 21 133 62 28 102 142 89 250 -13 104 -57 159
-147 181 l-45 12 5 77 c10 172 -57 251 -213 251 l-75 0 0 648 c0 766 17 685
-146 690 l-104 4 0 99 c0 93 -2 102 -25 124 l-24 25 -2003 0 c-1797 0 -2006
-2 -2026 -16z m3946 -841 l-3 -728 -67 -3 -68 -3 0 504 c0 486 -1 505 -20 529
-14 18 -32 27 -65 31 -84 9 -165 102 -165 188 0 21 -8 47 -19 60 l-19 24
-1484 2 c-1178 2 -1488 0 -1508 -10 -19 -10 -27 -24 -33 -62 -19 -110 -79
-188 -154 -200 -21 -3 -49 -11 -63 -18 l-25 -13 -3 -609 c-2 -555 -1 -610 14
-627 10 -10 24 -18 33 -18 35 0 92 -22 122 -48 37 -31 64 -87 73 -154 12 -84
-58 -78 898 -78 l848 0 0 -22 c0 -13 -3 -40 -6 -60 l-7 -38 -1063 0 -1064 0 0
1040 0 1040 1925 0 1925 0 -2 -727z m-514 465 c37 -119 102 -201 191 -239 l55
-24 0 -463 c0 -404 -2 -463 -15 -468 -9 -4 -45 14 -88 44 -98 67 -160 97 -264
127 -231 68 -492 28 -693 -104 -138 -91 -270 -248 -320 -381 l-22 -60 -830 2
-829 3 -18 53 c-29 86 -109 170 -187 197 l-39 13 -3 516 -2 516 48 23 c100 48
154 109 187 208 l17 49 1404 0 c1115 0 1405 -3 1408 -12z m766 -593 l0 -605
-60 0 -60 0 0 605 0 605 60 0 60 0 0 -605z m-967 -541 c40 -9 113 -35 162 -59
150 -72 256 -178 331 -330 101 -205 100 -420 -3 -635 -39 -81 -59 -107 -137
-185 -100 -100 -176 -146 -306 -187 -63 -19 -95 -23 -205 -22 -112 1 -141 4
-210 27 -367 121 -576 499 -480 872 8 33 34 98 57 145 55 111 187 247 293 302
163 84 334 108 498 72z m1220 -195 c33 -18 37 -28 37 -98 0 -106 16 -101 -325
-101 l-292 0 -19 42 c-10 24 -36 69 -56 101 -21 32 -38 60 -38 62 0 3 151 5
336 5 233 0 342 -3 357 -11z m201 -345 c22 -22 29 -57 24 -116 -4 -34 -12 -56
-24 -65 -14 -10 -92 -13 -369 -13 l-352 0 -6 88 c-3 48 -9 95 -12 105 -7 16
14 17 358 17 319 0 368 -2 381 -16z m-2405 -331 c6 -31 11 -60 11 -65 0 -4
-427 -8 -950 -8 l-950 0 0 65 0 65 939 0 938 0 12 -57z m2301 -13 c16 -16 20
-33 20 -85 0 -111 20 -105 -381 -105 -321 0 -341 1 -334 18 22 54 55 158 55
174 0 17 17 18 310 18 297 0 311 -1 330 -20z m114 -342 c10 -14 16 -44 16 -81
0 -48 -4 -62 -25 -82 l-24 -25 -538 0 -538 0 50 42 c57 48 155 149 155 161 0
4 200 7 444 7 l445 0 15 -22z"/>
<path d="M2075 3550 c-188 -38 -363 -174 -445 -345 -50 -106 -65 -170 -64
-285 2 -284 196 -533 472 -605 82 -21 232 -21 312 0 361 94 563 468 442 819
-36 104 -86 179 -173 260 -78 72 -180 127 -279 150 -69 17 -198 19 -265 6z
m248 -135 c180 -47 328 -202 366 -383 53 -256 -101 -513 -354 -588 -129 -38
-294 -15 -406 57 -53 34 -134 116 -167 170 -35 57 -62 147 -68 224 -19 233
154 470 382 524 61 14 185 12 247 -4z"/>
<path d="M2155 3315 c-14 -13 -25 -33 -25 -44 0 -13 -12 -27 -32 -37 -79 -40
-112 -99 -106 -189 6 -102 53 -146 190 -180 79 -20 85 -24 93 -57 5 -21 1 -33
-19 -52 -45 -46 -136 -26 -136 30 0 14 -11 36 -25 49 -64 65 -131 -14 -94
-112 13 -36 64 -88 100 -104 21 -8 29 -18 29 -35 0 -31 33 -64 65 -64 31 0 65
33 65 63 0 16 12 28 46 46 62 33 94 89 94 165 0 111 -45 159 -184 196 -44 12
-83 23 -88 26 -10 6 -10 65 0 80 14 22 54 36 87 30 38 -8 51 -20 61 -61 10
-42 33 -65 65 -65 38 0 59 24 59 70 0 74 -33 126 -102 161 -28 14 -38 26 -38
43 0 25 -41 66 -67 66 -8 0 -25 -11 -38 -25z"/>
<path d="M807 2972 c-21 -23 -22 -62 -3 -88 13 -17 27 -19 156 -19 137 0 142
1 161 24 24 30 24 56 -1 81 -18 18 -33 20 -158 20 -122 0 -141 -2 -155 -18z"/>
<path d="M3276 2971 c-26 -28 -18 -82 14 -98 30 -15 237 -18 275 -3 46 17 53
85 11 112 -6 4 -72 8 -147 8 -121 0 -138 -2 -153 -19z"/>
<path d="M3225 2368 c-28 -16 -35 -28 -35 -65 0 -29 -6 -34 -57 -60 -130 -64
-171 -229 -86 -341 32 -42 80 -66 189 -93 100 -26 134 -50 134 -99 0 -68 -45
-110 -116 -110 -72 0 -124 44 -124 104 0 54 -78 78 -113 35 -15 -19 -17 -32
-12 -69 13 -87 65 -151 148 -181 34 -12 37 -16 37 -50 0 -45 21 -69 60 -69 37
0 59 22 66 70 5 32 12 41 37 49 144 51 194 247 91 360 -35 40 -76 59 -184 86
-95 24 -118 39 -126 80 -13 74 34 125 116 125 72 0 120 -37 120 -93 0 -36 31
-69 65 -69 34 0 65 33 65 69 0 80 -69 178 -142 202 -32 11 -37 17 -42 56 -4
24 -12 48 -19 53 -22 17 -52 21 -72 10z"/>
</g>
</svg>
