<?xml version="1.0" encoding="utf-8"?>
<!-- Svg Vector Icons : http://www.onlinewebfonts.com/icon -->
<!DOCTYPE svg PUBLIC "-//W3C//DTD SVG 1.1//EN" "http://www.w3.org/Graphics/SVG/1.1/DTD/svg11.dtd">
<svg version="1.1" xmlns="http://www.w3.org/2000/svg" xmlns:xlink="http://www.w3.org/1999/xlink" x="0px" y="0px" viewBox="0 0 256 256" enable-background="new 0 0 256 256" xml:space="preserve">
<metadata> Svg Vector Icons : http://www.onlinewebfonts.com/icon </metadata>
<g><g><path fill="#000000" d="M225.9,75.9c-0.6-0.5-1.3-0.8-2.1-0.8c-0.1,0-0.2,0-0.3,0l-32.6,3.2c-0.5,0-0.9,0.2-1.3,0.4c-0.4-0.2-0.8-0.4-1.3-0.4l-32.7-3.2c-0.1,0-0.2,0-0.3,0c-0.8,0-1.5,0.3-2.1,0.8c-0.7,0.6-1,1.4-1,2.3v30.3c0,0.9,0.4,1.7,1,2.3c0.6,0.5,1.3,0.8,2.1,0.8c0.1,0,0.2,0,0.2,0l32.7-2.4c0.5,0,0.9-0.2,1.3-0.4c0.4,0.2,0.8,0.4,1.3,0.4l32.7,2.4c0.1,0,0.2,0,0.2,0c0.8,0,1.6-0.3,2.1-0.8c0.6-0.6,1-1.4,1-2.3V78.3C227,77.4,226.6,76.5,225.9,75.9z M188,106.2l-32.7,2.4V78.3l32.7,3.2V106.2L188,106.2z M223.8,78.3v15.2h-16.5V79.8L223.8,78.3z M206.4,80v13.6h-15.2V81.4L206.4,80z M191.2,94.4h15.2v12.9l-15.2-1.1V94.4z M207.3,107.4v-13h16.5v14.2L207.3,107.4z"/><path fill="#000000" d="M158.7,92.1c0.8,0,1.4,0.8,1.4,1.9c0,1-0.7,1.9-1.4,1.9c-0.8,0-1.4-0.8-1.4-1.9C157.2,92.9,157.9,92.1,158.7,92.1z"/><path fill="#000000" d="M245.5,36c-0.3-0.3-0.7-0.4-1.2-0.4l-116.3,18l-116.4-18c-0.4,0-0.8,0.1-1.2,0.4c-0.3,0.3-0.5,0.7-0.5,1.1v121c0,0.6,0.3,1.1,0.8,1.4l116.4,60.6c0.2,0.1,0.5,0.2,0.7,0.2c0.2,0,0.5-0.1,0.7-0.2l116.5-60.6c0.5-0.3,0.8-0.8,0.8-1.4v-121C246,36.7,245.8,36.3,245.5,36z M13.6,39.3L126,57.1v79.2L98,141.1l-0.1-68.5c0-0.8-0.6-1.6-1.5-1.7l-37.3-3.8c-0.5-0.1-1,0.1-1.4,0.4c-0.4,0.3-0.6,0.8-0.6,1.3v79.3l-43.6,7.6V39.3L13.6,39.3z M65.2,76.6c-0.4,0.1-0.8,0.4-0.8,0.9L64.4,137c0,0.4,0.3,0.8,0.8,0.9l29.4,3.4v0.3l-33.9,5.9V70.8l29.6,2.9L65.2,76.6z M94.5,75l0.1,64.5l-28.4-3.3l0.1-57.9L94.5,75z M30.4,165.7l-12.6-6.6L128,140l7.8,1.3L31.5,166.2L30.4,165.7z M32.9,167l105.5-25.1l12.8,2.2L46.8,174.2L32.9,167z M48.2,174.9l105.3-30.5l13.1,2.3L62.6,182.5L48.2,174.9z M63.9,183.1l104.8-36.1l15.5,2.7L78.9,191L63.9,183.1z M80.2,191.6l106-41.5l16.4,2.9L94.9,199.2L80.2,191.6z M96,199.9l108.4-46.6l14.9,2.6l-108,52L96,199.9z M128,216.5l-15.4-8l108.6-52.3l17,3L128,216.5z M242.4,155.7L130,136.2V57l112.3-17.7V155.7z"/><path fill="#000000" d="M67.7,108.4c0-1.1,0.6-1.9,1.2-1.9s1,1,1,2.1c0,1.1-0.6,1.9-1.2,1.9c-0.5-0.1-1-0.9-1-1.9V108.4z"/></g></g>
</svg>